<svg xmlns="http://www.w3.org/2000/svg" viewBox="0 0 800 120" width="100%" height="120">
  <defs>
    <filter id="glow" x="-20%" y="-20%" width="140%" height="140%">
      <feGaussianBlur stdDeviation="2.5" result="blur" />
      <feMerge>
        <feMergeNode in="blur" />
        <feMergeNode in="SourceGraphic" />
      </feMerge>
    </filter>
    
    <pattern id="grid" width="20" height="20" patternUnits="userSpaceOnUse">
      <path d="M 20 0 L 0 0 0 20" fill="none" stroke="#00ff66" stroke-width="0.7" stroke-opacity="0.04" />
    </pattern>

    <clipPath id="graph-clip">
      <rect x="550" y="30" width="220" height="65" />
    </clipPath>
  </defs>

  <style>
    .bg {
      fill: #050806;
      stroke: #00ff66;
      stroke-width: 1.5;
      stroke-opacity: 0.45;
    }
    .hud-text {
      font-family: 'Consolas', 'Monaco', 'Courier New', monospace;
      fill: #00ff66;
      font-weight: bold;
    }
    
    /* Contribution blocks */
    .c-none { fill: #0a110d; }
    .c-low { fill: #00441b; }
    .c-mid { fill: #006b2b; }
    .c-high { fill: #00a33e; }
    .c-peak { fill: #00ff66; filter: url(#glow); opacity: 0.9; }
    
    /* Pulse packet animations */
    .pulse-node { animation: pulse 1.8s infinite ease-in-out; }
    .blink-node { animation: blink 0.5s infinite; }
    
    /* Scanner sweep */
    .sweep {
      animation: sweep-move 4s linear infinite;
    }

    @keyframes sweep-move {
      0% { transform: translateX(0px); opacity: 0.8; }
      85% { opacity: 0.8; }
      100% { transform: translateX(220px); opacity: 0; }
    }
    @keyframes pulse {
      0%, 100% { opacity: 0.4; }
      50% { opacity: 1; }
    }
    @keyframes blink {
      0%, 100% { opacity: 0.2; }
      50% { opacity: 1; }
    }
  </style>

  <!-- Frame Background -->
  <rect width="800" height="120" rx="8" class="bg" />
  <rect width="800" height="120" rx="8" fill="url(#grid)" />

  <!-- Corner Brackets -->
  <path d="M 2 12 L 2 2 L 12 2" fill="none" stroke="#00ff66" stroke-width="2.5" />
  <path d="M 798 12 L 798 2 L 788 2" fill="none" stroke="#00ff66" stroke-width="2.5" />
  <path d="M 2 108 L 2 118 L 12 118" fill="none" stroke="#00ff66" stroke-width="2.5" />
  <path d="M 798 108 L 798 118 L 788 118" fill="none" stroke="#00ff66" stroke-width="2.5" />

  <text x="25" y="22" class="hud-text" font-size="9" fill-opacity="0.5">> OMNITRIX_DNA_MATRIX_LOGS</text>

  <!-- Dividers -->
  <line x1="260" y1="15" x2="260" y2="105" stroke="#00ff66" stroke-opacity="0.2" stroke-dasharray="3, 3" />
  <line x1="535" y1="15" x2="535" y2="105" stroke="#00ff66" stroke-opacity="0.2" stroke-dasharray="3, 3" />

  <!-- ================= LEFT: PACKET TRAFFIC GRID ================= -->
  <!-- 24 cols x 5 rows of 6x6 rects, spacing=8 (x_offset=25, y_offset=35) -->
  <g transform="translate(15, 10)">
    <!-- Row 1 -->
    <rect x="10" y="25" width="6" height="6" class="c-none" />
    <rect x="18" y="25" width="6" height="6" class="c-low" />
    <rect x="26" y="25" width="6" height="6" class="c-mid" />
    <rect x="34" y="25" width="6" height="6" class="c-none" />
    <rect x="42" y="25" width="6" height="6" class="c-none" />
    <rect x="50" y="25" width="6" height="6" class="c-low" />
    <rect x="58" y="25" width="6" height="6" class="c-high" />
    <rect x="66" y="25" width="6" height="6" class="c-peak pulse-node" />
    <rect x="74" y="25" width="6" height="6" class="c-mid" />
    <rect x="82" y="25" width="6" height="6" class="c-none" />
    <rect x="90" y="25" width="6" height="6" class="c-low" />
    <rect x="98" y="25" width="6" height="6" class="c-none" />
    <rect x="106" y="25" width="6" height="6" class="c-high" />
    <rect x="114" y="25" width="6" height="6" class="c-mid" />
    <rect x="122" y="25" width="6" height="6" class="c-low" />
    <rect x="130" y="25" width="6" height="6" class="c-none" />
    <rect x="138" y="25" width="6" height="6" class="c-none" />
    <rect x="146" y="25" width="6" height="6" class="c-high" />
    <rect x="154" y="25" width="6" height="6" class="c-peak pulse-node" />
    <rect x="162" y="25" width="6" height="6" class="c-mid" />
    <rect x="170" y="25" width="6" height="6" class="c-low" />
    <rect x="178" y="25" width="6" height="6" class="c-none" />
    <rect x="186" y="25" width="6" height="6" class="c-none" />
    <rect x="194" y="25" width="6" height="6" class="c-low" />

    <!-- Row 2 -->
    <rect x="10" y="33" width="6" height="6" class="c-low" />
    <rect x="18" y="33" width="6" height="6" class="c-none" />
    <rect x="26" y="33" width="6" height="6" class="c-high" />
    <rect x="34" y="33" width="6" height="6" class="c-peak blink-node" />
    <rect x="42" y="33" width="6" height="6" class="c-mid" />
    <rect x="50" y="33" width="6" height="6" class="c-none" />
    <rect x="58" y="33" width="6" height="6" class="c-low" />
    <rect x="66" y="33" width="6" height="6" class="c-none" />
    <rect x="74" y="33" width="6" height="6" class="c-high" />
    <rect x="82" y="33" width="6" height="6" class="c-mid" />
    <rect x="90" y="33" width="6" height="6" class="c-low" />
    <rect x="98" y="33" width="6" height="6" class="c-none" />
    <rect x="106" y="33" width="6" height="6" class="c-none" />
    <rect x="114" y="33" width="6" height="6" class="c-low" />
    <rect x="122" y="33" width="6" height="6" class="c-high" />
    <rect x="130" y="33" width="6" height="6" class="c-peak blink-node" />
    <rect x="138" y="33" width="6" height="6" class="c-mid" />
    <rect x="146" y="33" width="6" height="6" class="c-none" />
    <rect x="154" y="33" width="6" height="6" class="c-low" />
    <rect x="162" y="33" width="6" height="6" class="c-none" />
    <rect x="170" y="33" width="6" height="6" class="c-high" />
    <rect x="178" y="33" width="6" height="6" class="c-mid" />
    <rect x="186" y="33" width="6" height="6" class="c-low" />
    <rect x="194" y="33" width="6" height="6" class="c-none" />

    <!-- Row 3 -->
    <rect x="10" y="41" width="6" height="6" class="c-high" />
    <rect x="18" y="41" width="6" height="6" class="c-mid" />
    <rect x="26" y="41" width="6" height="6" class="c-low" />
    <rect x="34" y="41" width="6" height="6" class="c-none" />
    <rect x="42" y="41" width="6" height="6" class="c-none" />
    <rect x="50" y="41" width="6" height="6" class="c-high" />
    <rect x="58" y="41" width="6" height="6" class="c-peak pulse-node" />
    <rect x="66" y="41" width="6" height="6" class="c-mid" />
    <rect x="74" y="41" width="6" height="6" class="c-low" />
    <rect x="82" y="41" width="6" height="6" class="c-none" />
    <rect x="90" y="41" width="6" height="6" class="c-none" />
    <rect x="98" y="41" width="6" height="6" class="c-low" />
    <rect x="106" y="41" width="6" height="6" class="c-high" />
    <rect x="114" y="41" width="6" height="6" class="c-peak pulse-node" />
    <rect x="122" y="41" width="6" height="6" class="c-mid" />
    <rect x="130" y="41" width="6" height="6" class="c-low" />
    <rect x="138" y="41" width="6" height="6" class="c-none" />
    <rect x="146" y="41" width="6" height="6" class="c-none" />
    <rect x="154" y="41" width="6" height="6" class="c-high" />
    <rect x="162" y="41" width="6" height="6" class="c-mid" />
    <rect x="170" y="41" width="6" height="6" class="c-low" />
    <rect x="178" y="41" width="6" height="6" class="c-none" />
    <rect x="186" y="41" width="6" height="6" class="c-none" />
    <rect x="194" y="41" width="6" height="6" class="c-high" />

    <!-- Row 4 -->
    <rect x="10" y="49" width="6" height="6" class="c-mid" />
    <rect x="18" y="49" width="6" height="6" class="c-none" />
    <rect x="26" y="49" width="6" height="6" class="c-low" />
    <rect x="34" y="49" width="6" height="6" class="c-none" />
    <rect x="42" y="49" width="6" height="6" class="c-high" />
    <rect x="50" y="49" width="6" height="6" class="c-mid" />
    <rect x="58" y="49" width="6" height="6" class="c-low" />
    <rect x="66" y="49" width="6" height="6" class="c-none" />
    <rect x="74" y="49" width="6" height="6" class="c-none" />
    <rect x="82" y="49" width="6" height="6" class="c-low" />
    <rect x="90" y="49" width="6" height="6" class="c-high" />
    <rect x="98" y="49" width="6" height="6" class="c-peak blink-node" />
    <rect x="106" y="49" width="6" height="6" class="c-mid" />
    <rect x="114" y="49" width="6" height="6" class="c-none" />
    <rect x="122" y="49" width="6" height="6" class="c-low" />
    <rect x="130" y="49" width="6" height="6" class="c-none" />
    <rect x="138" y="49" width="6" height="6" class="c-high" />
    <rect x="146" y="49" width="6" height="6" class="c-mid" />
    <rect x="154" y="49" width="6" height="6" class="c-low" />
    <rect x="162" y="49" width="6" height="6" class="c-none" />
    <rect x="170" y="49" width="6" height="6" class="c-none" />
    <rect x="178" y="49" width="6" height="6" class="c-low" />
    <rect x="186" y="49" width="6" height="6" class="c-high" />
    <rect x="194" y="49" width="6" height="6" class="c-peak blink-node" />

    <!-- Row 5 -->
    <rect x="10" y="57" width="6" height="6" class="c-none" />
    <rect x="18" y="57" width="6" height="6" class="c-low" />
    <rect x="26" y="57" width="6" height="6" class="c-none" />
    <rect x="34" y="57" width="6" height="6" class="c-high" />
    <rect x="42" y="57" width="6" height="6" class="c-mid" />
    <rect x="50" y="57" width="6" height="6" class="c-low" />
    <rect x="58" y="57" width="6" height="6" class="c-none" />
    <rect x="66" y="57" width="6" height="6" class="c-none" />
    <rect x="74" y="57" width="6" height="6" class="c-high" />
    <rect x="82" y="57" width="6" height="6" class="c-peak pulse-node" />
    <rect x="90" y="57" width="6" height="6" class="c-mid" />
    <rect x="98" y="57" width="6" height="6" class="c-low" />
    <rect x="106" y="57" width="6" height="6" class="c-none" />
    <rect x="114" y="57" width="6" height="6" class="c-none" />
    <rect x="122" y="57" width="6" height="6" class="c-low" />
    <rect x="130" y="57" width="6" height="6" class="c-high" />
    <rect x="138" y="57" width="6" height="6" class="c-peak pulse-node" />
    <rect x="146" y="57" width="6" height="6" class="c-mid" />
    <rect x="154" y="57" width="6" height="6" class="c-low" />
    <rect x="162" y="57" width="6" height="6" class="c-none" />
    <rect x="170" y="57" width="6" height="6" class="c-none" />
    <rect x="178" y="57" width="6" height="6" class="c-low" />
    <rect x="186" y="57" width="6" height="6" class="c-none" />
    <rect x="194" y="57" width="6" height="6" class="c-high" />
    
    <text x="10" y="76" class="hud-text" font-size="8" fill-opacity="0.45">SEC_FLOW [ A01 // E24 ]</text>
  </g>

  <!-- ================= MIDDLE: NETWORK DUPLEX METRICS ================= -->
  <g transform="translate(280, 0)">
    <text x="0" y="22" class="hud-text" font-size="9" fill-opacity="0.5">> DUPLEX_STREAM_TELEMETRY</text>
    
    <g transform="translate(0, 32)">
      <text x="0" y="12" class="hud-text" font-size="10" fill-opacity="0.6">TRANS RATE:</text>
      <text x="105" y="12" class="hud-text" font-size="10">60 FPS // STABLE</text>

      <text x="0" y="28" class="hud-text" font-size="10" fill-opacity="0.6">PACKET DUPLEX:</text>
      <text x="105" y="28" class="hud-text" font-size="10">FULL_ASYNCHRONOUS</text>

      <text x="0" y="44" class="hud-text" font-size="10" fill-opacity="0.6">DATA LOSS:</text>
      <text x="105" y="44" class="hud-text" font-size="10" fill="#00ff66">0.000% // NULL</text>

      <text x="0" y="60" class="hud-text" font-size="10" fill-opacity="0.6">SYS SECURITY:</text>
      <text x="105" y="60" class="hud-text" font-size="10" fill="#ffffff">ENCRYPTED_SHA256</text>
    </g>
  </g>

  <!-- ================= RIGHT: HIGH-TECH BUFFER GRAPH ================= -->
  <g>
    <!-- Background Frame for buffer scan -->
    <rect x="550" y="30" width="220" height="65" fill="#000000" fill-opacity="0.5" stroke="#00ff66" stroke-opacity="0.15" rx="3" />
    
    <!-- Grid inside buffer graph -->
    <line x1="550" y1="46" x2="770" y2="46" stroke="#00ff66" stroke-opacity="0.05" />
    <line x1="550" y1="62" x2="770" y2="62" stroke="#00ff66" stroke-opacity="0.05" />
    <line x1="550" y1="78" x2="770" y2="78" stroke="#00ff66" stroke-opacity="0.05" />

    <!-- Static Area Under Curve Grid representation -->
    <g clip-path="url(#graph-clip)">
      <!-- Peak load history path -->
      <path d="M 550 95 L 565 72 L 580 84 L 595 45 L 610 65 L 625 78 L 640 32 L 655 58 L 670 42 L 685 85 L 700 68 L 715 48 L 730 72 L 745 54 L 760 90 L 770 95" 
            fill="none" stroke="#00ff66" stroke-width="1.8" filter="url(#glow)" />
      
      <!-- Translucent fill under path -->
      <path d="M 550 95 L 565 72 L 580 84 L 595 45 L 610 65 L 625 78 L 640 32 L 655 58 L 670 42 L 685 85 L 700 68 L 715 48 L 730 72 L 745 54 L 760 90 L 770 95 L 770 95 L 550 95 Z" 
            fill="#00ff66" fill-opacity="0.08" />

      <!-- Sweeper Scan Line (translating left to right) -->
      <g class="sweep">
        <line x1="550" y1="30" x2="550" y2="95" stroke="#00ff66" stroke-width="1.8" filter="url(#glow)" />
        <!-- Small gradient fade trailing behind sweeper line -->
        <rect x="535" y="30" width="15" height="65" fill="url(#sweep-fade)" opacity="0.15" />
      </g>
    </g>

    <!-- Linear Gradient for Sweep line trailing fade -->
    <linearGradient id="sweep-fade" x1="0" y1="0" x2="1" y2="0">
      <stop offset="0%" stop-color="#00ff66" stop-opacity="0" />
      <stop offset="100%" stop-color="#00ff66" stop-opacity="1" />
    </linearGradient>

    <text x="550" y="108" class="hud-text" font-size="8" fill-opacity="0.45">> INTEGRITY_SCAN: REFRESHING_3s</text>
  </g>
</svg>
